<svg width="131" height="25" viewBox="0 0 131 25" fill="none" xmlns="http://www.w3.org/2000/svg">
<g clip-path="url(#clip0)">
<path d="M4.20951 9.77669C4.13721 10.5318 4.09704 11.287 4.09704 12.01C4.09704 14.1469 4.41838 16.1392 5.05302 17.9226C4.42641 18.1716 3.88014 18.3001 3.4383 18.3001C2.85186 18.2921 2.51446 18.1314 2.19312 17.7057C1.89589 17.296 1.72719 16.589 1.72719 15.7214C1.72719 15.2153 1.77539 14.6449 1.87982 14.0264C2.26542 11.7127 3.1009 9.50355 4.28985 7.65587C4.44248 7.41487 4.61118 7.1819 4.78792 6.94893C4.50675 7.81654 4.30591 8.78055 4.20951 9.77669ZM7.80045 19.6337C7.61568 19.3606 7.44698 19.0633 7.27828 18.75C7.31844 18.7259 7.36665 18.7018 7.40681 18.6777C8.25032 18.1957 9.00546 17.6816 9.7124 17.1996L9.76864 17.1594C10.0016 17.0068 10.2024 16.8622 10.3792 16.7497C11.6886 15.8901 12.5402 15.4563 13.7291 15.0225C15.4965 14.3798 17.1272 14.0746 18.7098 14.0746C19.4569 14.0746 20.188 14.1388 20.9512 14.2754C21.4251 14.3557 22.5659 14.669 23.787 15.143C23.6022 15.1992 23.4094 15.2635 23.2246 15.3278C20.9753 16.1633 18.9428 17.7298 17.4245 18.9991C16.9184 19.4248 16.4364 19.8827 15.9785 20.3165L15.874 20.4129C15.2796 20.9753 14.7253 21.5135 14.1228 21.9875C13.8175 22.2285 13.4158 22.4775 12.982 22.6784C12.6366 22.839 12.3072 22.9194 11.9618 22.9194C11.2709 22.9194 10.5157 22.5739 9.7365 21.8911C9.09383 21.3609 8.45116 20.5897 7.80045 19.6337ZM18.7098 12.3554C16.9103 12.3554 15.0868 12.7009 13.1427 13.4078C11.8493 13.8737 10.8451 14.3959 9.43927 15.3037C9.2545 15.4242 9.0376 15.5688 8.81266 15.7295L8.74036 15.7777C8.13785 16.1874 7.39878 16.6935 6.6115 17.1514C6.08933 15.609 5.82423 13.8737 5.82423 12.018C5.82423 11.3512 5.85636 10.6523 5.92866 9.95343C6.19377 7.1578 7.27024 4.99681 8.86086 4.01673C9.15006 3.83999 9.4232 3.72753 9.69634 3.66326L9.7847 3.64719C10.3229 3.54276 10.8531 3.48652 11.3673 3.48652H11.4075C15.874 3.48652 20.2362 7.60767 21.0395 12.5402C20.2522 12.4197 19.473 12.3554 18.7098 12.3554ZM25.8676 16.5328C26.0604 16.5328 26.2211 16.5489 26.3657 16.573C26.5183 16.5971 26.6388 16.6372 26.7352 16.6774C26.8236 16.7176 26.8638 16.7417 26.8718 16.7497L26.9762 16.83C27.4823 17.2478 27.6189 17.5771 27.6189 17.7057C27.6189 17.7619 27.6028 17.8181 27.5707 17.8824C27.3538 18.2921 26.9923 18.4769 26.4058 18.4849H26.3737C25.5623 18.4849 24.3654 17.9386 23.6584 17.0068C23.7147 16.9827 23.7709 16.9666 23.8191 16.9425C24.526 16.6854 25.2731 16.5328 25.8676 16.5328V16.3641V16.5328ZM28.0688 15.4965C26.4781 14.1951 23.7789 13.2793 22.8229 12.982C22.5257 10.1543 21.2082 7.3506 19.1838 5.26191C16.9987 3.01255 14.2192 1.76737 11.3593 1.75934C10.6282 1.75934 9.89717 1.83967 9.1822 2.00034C8.41902 2.16904 7.68798 2.44218 6.94891 2.83582C5.9126 3.39012 5.00482 4.09706 4.16934 5.00484C3.67127 5.54308 3.22943 6.12148 2.84383 6.71596C1.52635 8.76448 0.61054 11.1906 0.184769 13.7372C0.0642673 14.4441 0 15.1109 0 15.7134C0.00803342 16.9987 0.265103 17.9788 0.795308 18.7099C1.39781 19.5534 2.32166 20.0193 3.39814 20.0193H3.43027C4.12114 20.0193 4.87629 19.8506 5.73586 19.5052C5.9367 19.8908 6.1536 20.2523 6.37853 20.5897C7.12564 21.6983 7.85668 22.5498 8.60379 23.2005C9.7124 24.1645 10.8371 24.6465 11.9698 24.6546C12.5643 24.6546 13.1507 24.518 13.7211 24.2449C14.2834 23.9717 14.7895 23.6584 15.1912 23.3371C15.858 22.8069 16.4685 22.2285 17.0549 21.6662L17.1031 21.626C17.5932 21.16 18.0511 20.7262 18.5331 20.3165C19.8827 19.1838 21.0154 18.3644 22.0839 17.7619C23.0398 19.216 24.759 20.188 26.4058 20.2041H26.4299C27.6028 20.2041 28.599 19.6337 29.089 18.6697C29.2497 18.3644 29.33 18.035 29.33 17.6896C29.322 16.9104 28.9203 16.2115 28.0688 15.4965Z" fill="#DA2032"/>
<path d="M36.0058 5.50289V7.45501H36.062C36.5842 6.7079 37.2108 6.1295 37.9499 5.71979C38.6889 5.31009 39.5244 5.10925 40.4804 5.10925C41.3962 5.10925 42.2236 5.28599 42.9788 5.63946C43.7339 5.99293 44.3043 6.61954 44.6979 7.51125C45.1237 6.87661 45.7101 6.3223 46.4412 5.84029C47.1803 5.35829 48.0479 5.11729 49.0521 5.11729C49.8152 5.11729 50.5222 5.21369 51.1729 5.39846C51.8236 5.58322 52.3859 5.88046 52.8519 6.29017C53.3178 6.69987 53.6793 7.23811 53.9444 7.89685C54.2015 8.55559 54.338 9.3509 54.338 10.2828V19.947H50.3695V11.7609C50.3695 11.2789 50.3535 10.821 50.3133 10.3952C50.2731 9.96947 50.1767 9.5919 50.008 9.2786C49.8393 8.96529 49.5903 8.70822 49.269 8.52346C48.9396 8.33869 48.4977 8.24229 47.9434 8.24229C47.3891 8.24229 46.9312 8.34672 46.5858 8.56362C46.2404 8.78052 45.9753 9.05366 45.7744 9.3991C45.5816 9.74454 45.445 10.1382 45.3808 10.572C45.3165 11.0138 45.2844 11.4557 45.2844 11.8975V19.9389H41.3159V11.8413C41.3159 11.4155 41.3078 10.9897 41.2837 10.572C41.2677 10.1542 41.1873 9.76864 41.0427 9.41517C40.9062 9.0617 40.6732 8.78052 40.3438 8.56362C40.0145 8.34672 39.5405 8.24229 38.9058 8.24229C38.7211 8.24229 38.472 8.28245 38.1668 8.37082C37.8615 8.45115 37.5643 8.61182 37.2751 8.84479C36.9859 9.07776 36.7368 9.41517 36.536 9.84897C36.3271 10.2828 36.2307 10.8612 36.2307 11.5681V19.947H32.2622V5.50289H36.0058Z" fill="black"/>
<path d="M59.5518 5.50289V8.18605H59.6081C59.7929 7.73618 60.0419 7.32648 60.3632 6.94087C60.6765 6.55527 61.0461 6.23393 61.4558 5.9608C61.8655 5.68766 62.2993 5.47879 62.7652 5.33419C63.2312 5.18959 63.7132 5.10925 64.2193 5.10925C64.4763 5.10925 64.7655 5.15745 65.0869 5.24582V8.93316C64.9021 8.89299 64.6772 8.86086 64.4201 8.83676C64.163 8.80463 63.906 8.79659 63.665 8.79659C62.942 8.79659 62.3234 8.91709 61.8173 9.1581C61.3112 9.3991 60.9095 9.72847 60.6042 10.1462C60.299 10.5639 60.0821 11.054 59.9455 11.6163C59.817 12.1787 59.7527 12.7812 59.7527 13.4319V19.9389H55.7842V5.50289H59.5518Z" fill="black"/>
<path d="M78.9205 16.9505C79.3623 16.6935 79.7158 16.348 79.9809 15.9303C80.254 15.5126 80.4388 15.0225 80.5512 14.4602C80.6637 13.8978 80.7199 13.3355 80.7199 12.7571C80.7199 12.1787 80.6557 11.6163 80.5352 11.054C80.4147 10.4997 80.2138 9.99359 79.9327 9.55979C79.6515 9.12599 79.29 8.77251 78.8562 8.49938C78.4224 8.23428 77.8842 8.09771 77.2495 8.09771C76.5988 8.09771 76.0525 8.23428 75.6187 8.49938C75.1769 8.77251 74.8234 9.11795 74.5583 9.54372C74.2852 9.96949 74.1004 10.4676 73.9879 11.0219C73.8755 11.5842 73.8192 12.1546 73.8192 12.7571C73.8192 13.3355 73.8835 13.9059 74.004 14.4602C74.1245 15.0145 74.3173 15.5045 74.5904 15.9303C74.8636 16.348 75.2171 16.6854 75.6669 16.9505C76.1168 17.2156 76.655 17.3442 77.2897 17.3442C77.9404 17.3442 78.4786 17.2156 78.9205 16.9505ZM73.763 5.50291V7.3506H73.8192C74.3012 6.57136 74.9198 6.00099 75.6669 5.64752C76.414 5.29405 77.2334 5.11731 78.1252 5.11731C79.2579 5.11731 80.2379 5.33421 81.0574 5.75998C81.8768 6.18575 82.5596 6.75613 83.0978 7.46307C83.6361 8.17001 84.0377 8.99745 84.2948 9.93736C84.5519 10.8773 84.6885 11.8573 84.6885 12.8856C84.6885 13.8496 84.5599 14.7815 84.2948 15.6813C84.0377 16.573 83.6361 17.3683 83.1059 18.0591C82.5757 18.75 81.9169 19.2963 81.1216 19.706C80.3263 20.1157 79.4025 20.3165 78.3421 20.3165C77.4503 20.3165 76.6229 20.1318 75.8678 19.7703C75.1126 19.4088 74.494 18.8705 74.012 18.1636H73.9558V25.0081H69.9873V5.50291H73.763Z" fill="black"/>
<path d="M89.7174 5.50289V8.18605H89.7736C89.9584 7.73618 90.2074 7.32648 90.5288 6.94087C90.8421 6.55527 91.2116 6.23393 91.6213 5.9608C92.031 5.68766 92.4728 5.47879 92.9308 5.33419C93.3967 5.18959 93.8787 5.10925 94.3848 5.10925C94.6419 5.10925 94.9311 5.15745 95.2524 5.24582V8.93316C95.0676 8.89299 94.8427 8.86086 94.5856 8.83676C94.3286 8.80463 94.0715 8.79659 93.8305 8.79659C93.1075 8.79659 92.4889 8.91709 91.9828 9.1581C91.4767 9.3991 91.075 9.72847 90.7698 10.1462C90.4645 10.5639 90.2476 11.054 90.111 11.6163C89.9825 12.1787 89.9182 12.7812 89.9182 13.4319V19.9389H85.9497V5.50289H89.7174Z" fill="black"/>
<path d="M100.329 19.9389H96.3608V5.50289H100.329V19.9389ZM96.3608 0H100.329V3.2696H96.3608V0Z" fill="black"/>
<path d="M108.676 8.09771C108.042 8.09771 107.511 8.24231 107.086 8.53151C106.652 8.82072 106.306 9.19025 106.041 9.64816C105.768 10.1061 105.583 10.6041 105.471 11.1584C105.358 11.7047 105.302 12.251 105.302 12.7892C105.302 13.3114 105.358 13.8416 105.471 14.3798C105.583 14.9181 105.76 15.4081 106.017 15.85C106.266 16.2838 106.612 16.6453 107.037 16.9264C107.463 17.2076 107.985 17.3442 108.604 17.3442C109.552 17.3442 110.283 17.0791 110.797 16.5489C111.311 16.0187 111.633 15.3037 111.761 14.412H115.585C115.32 16.332 114.581 17.794 113.352 18.7982C112.123 19.8024 110.548 20.3085 108.628 20.3085C107.544 20.3085 106.555 20.1237 105.656 19.7622C104.756 19.4007 103.985 18.8946 103.35 18.2359C102.716 17.5852 102.225 16.8059 101.872 15.9062C101.519 15.0064 101.342 14.0103 101.342 12.9338C101.342 11.8172 101.502 10.7809 101.832 9.81686C102.153 8.86088 102.635 8.03344 103.27 7.33453C103.904 6.63563 104.676 6.08935 105.591 5.70375C106.507 5.31011 107.544 5.11731 108.716 5.11731C109.576 5.11731 110.395 5.22978 111.191 5.45471C111.986 5.67965 112.693 6.01705 113.312 6.47496C113.938 6.93286 114.444 7.50324 114.83 8.17804C115.224 8.86088 115.44 9.66422 115.497 10.5961H111.617C111.351 8.92515 110.371 8.09771 108.676 8.09771Z" fill="black"/>
<path d="M125.98 8.88498C125.506 8.36281 124.783 8.10574 123.819 8.10574C123.184 8.10574 122.662 8.21018 122.245 8.42708C121.827 8.64398 121.489 8.90908 121.24 9.22239C120.991 9.53569 120.815 9.87309 120.71 10.2266C120.606 10.58 120.549 10.8933 120.525 11.1745H126.976C126.791 10.1623 126.454 9.39912 125.98 8.88498ZM121.497 16.4766C122.092 17.055 122.951 17.3442 124.068 17.3442C124.871 17.3442 125.554 17.1433 126.133 16.7417C126.711 16.34 127.065 15.9142 127.193 15.4724H130.688C130.125 17.2076 129.274 18.4448 128.117 19.1919C126.96 19.939 125.562 20.3085 123.924 20.3085C122.791 20.3085 121.763 20.1318 120.855 19.7622C119.939 19.4007 119.168 18.8786 118.533 18.2118C117.898 17.545 117.408 16.7417 117.063 15.8098C116.718 14.8779 116.549 13.8577 116.549 12.741C116.549 11.6645 116.726 10.6523 117.079 9.72849C117.433 8.79662 117.939 7.99327 118.589 7.31043C119.24 6.62759 120.019 6.09739 120.919 5.70375C121.819 5.31011 122.823 5.11731 123.924 5.11731C125.153 5.11731 126.221 5.35028 127.137 5.83228C128.053 6.30626 128.8 6.94893 129.386 7.74424C129.973 8.54758 130.398 9.45536 130.656 10.4836C130.921 11.5039 131.009 12.5804 130.937 13.697H120.517C120.582 14.9663 120.903 15.8982 121.497 16.4766Z" fill="black"/>
</g>
<defs>
<clipPath id="clip0">
<rect width="130.969" height="25" fill="white"/>
</clipPath>
</defs>
</svg>
